Seeding Time 24/7

Don't Forget To Say Thanks If You Like My Post



-=Media Info=-

Format : AVI
Format/Info : Audio Video Interleave
File size : 345 MiB
Duration : 21mn 52s
Overall bit rate : 2 206 Kbps
Writing library : VirtualDub build 32593/release

Video
ID : 0
Format : MPEG-4 Visual
Format settings, BVOP : 2
Format settings, QPel : No
Format settings, GMC : No warppoints
Format settings, Matrix : Default (H.263)
Muxing mode : Packed bitstream
Codec ID : DX50
Codec ID/Hint : DivX 5
Duration : 21mn 52s
Bit rate : 2 068 Kbps
Width : 712 pixels
Height : 400 pixels
Display aspect ratio : 16:9
Frame rate : 25.000 fps
Color space : YUV
Chroma subsampling : 40
Bit depth : 8 bits
Scan type : Progressive
Compression mode : Lossy
Bits/(Pixel*Frame) : 0.290
Stream size : 324 MiB (94%)
Writing library : DivX 6.8.5 (UTC 2009-08-20)

Audio
ID : 1
Format : MPEG Audio
Format version : Version 1
Format profile : Layer 3
Mode : Joint stereo
Mode extension : MS Stereo
Codec ID : 55
Codec ID/Hint : MP3
Duration : 21mn 52s
Bit rate mode : Constant
Bit rate : 128 Kbps
Channel(s) : 2 channels
Sampling rate : 48.0 KHz
Compression mode : Lossy
Stream size : 20.0 MiB (6%)
Alignment : Split accross interleaves
Interleave, duration : 40 ms (1.00 video frame)
Interleave, preload duration : 500 ms
Writing library : LAME3.98.2

Secreen
 
http://bayimg.com/iaOkgAADO